<svg width="100%" height="100%" viewBox="0 0 27 17" version="1.1" xmlns="http://www.w3.org/2000/svg" xmlns:xlink="http://www.w3.org/1999/xlink" style="fill-rule:evenodd;clip-rule:evenodd;stroke-linejoin:round;stroke-miterlimit:1.41421;"><g id="show-menu" serif:id="show menu"><path d="M26.611,0.628c0,-0.347 -0.281,-0.628 -0.628,-0.628l-25.355,0c-0.347,0 -0.628,0.281 -0.628,0.628l0,1.257c0,0.346 0.281,0.628 0.628,0.628l25.355,0c0.347,0 0.628,-0.282 0.628,-0.628l0,-1.257Z" style="fill:#595959;"/><path d="M26.611,7.699c0,-0.346 -0.281,-0.628 -0.628,-0.628l-25.355,0c-0.347,0 -0.628,0.282 -0.628,0.628l0,1.257c0,0.346 0.281,0.628 0.628,0.628l25.355,0c0.347,0 0.628,-0.282 0.628,-0.628l0,-1.257Z" style="fill:#595959;"/><path d="M26.611,14.771c0,-0.347 -0.281,-0.629 -0.628,-0.629l-25.355,0c-0.347,0 -0.628,0.282 -0.628,0.629l0,1.256c0,0.347 0.281,0.628 0.628,0.628l25.355,0c0.347,0 0.628,-0.281 0.628,-0.628l0,-1.256Z" style="fill:#595959;"/></g></svg>
